<svg width="100" height="41" viewBox="0 0 100 41" fill="none" xmlns="http://www.w3.org/2000/svg">
<path fill-rule="evenodd" clip-rule="evenodd" d="M0.0703181 30.6719C11.4876 27.8994 30.9461 19.2156 31.3339 9.57617C31.7105 0.216322 13.6547 -0.00994403 7.36075 0.0397746C7.30334 0.0397746 7.30634 0.106191 7.35118 0.106191C11.4313 0.491557 20.7497 2.51013 20.4769 10.5518C20.1917 18.9617 9.62567 25.8437 0.0609373 30.652C0.0399241 30.6576 0.0500555 30.6773 0.0703181 30.6719ZM38.7617 8.19287C38.7617 12.8724 28.3566 18.9805 23.9478 21.2807C23.9339 21.2844 23.9298 21.269 23.9394 21.2636C29.3756 17.8634 33.2225 13.9747 33.4097 9.45591C33.5971 4.93227 29.336 2.33002 24.0947 0.992683C24.0838 0.989869 24.0896 0.979362 24.0979 0.981426C30.2893 2.15835 35.6311 4.56717 35.4116 9.30919C35.3223 11.2368 34.4202 13.0679 32.915 14.7966C38.0086 10.0807 39.0334 5.40169 31.6639 2.48124C31.6478 2.47204 31.6598 2.45704 31.6791 2.46191C35.9474 3.71238 38.7617 5.54634 38.7617 8.19287ZM28.7144 24.1923H24.063C23.997 24.1923 23.978 24.2439 23.978 24.2811V36.1833C23.978 36.2013 23.9782 36.2662 24.0609 36.2662H28.7144C32.9343 36.2662 34.7945 33.1833 34.7427 30.1261C34.6911 27.1377 32.8482 24.1923 28.7144 24.1923ZM99.1746 26.5908C99.0228 26.528 98.8562 26.4931 98.6819 26.4931C98.5078 26.4931 98.3412 26.528 98.1894 26.5908C98.0318 26.6561 97.89 26.7518 97.7714 26.87L97.7709 26.8705L97.7705 26.8709C97.6519 26.9897 97.5561 27.1317 97.4908 27.2895C97.4279 27.4413 97.393 27.6079 97.393 27.782C97.393 27.9563 97.4277 28.1227 97.4908 28.2745V28.2747C97.5561 28.4325 97.6519 28.5745 97.7705 28.6931L97.7709 28.6934L97.7712 28.6936C97.8898 28.8122 98.0318 28.9081 98.1894 28.9734C98.3412 29.0362 98.5078 29.0711 98.6819 29.0711C98.8562 29.0711 99.0228 29.0362 99.1746 28.9734C99.3326 28.9079 99.4746 28.812 99.5932 28.6936L99.5934 28.6933C99.7121 28.5747 99.8078 28.4325 99.8731 28.2747H99.8733C99.9361 28.1229 99.971 27.9563 99.971 27.782C99.971 27.6077 99.9361 27.4413 99.8733 27.2895H99.8731C99.8078 27.1317 99.7121 26.9897 99.5934 26.8709L99.5932 26.8705C99.4746 26.752 99.3326 26.6563 99.1746 26.5908ZM99.0594 28.5135H99.2155H99.3277L99.3001 28.4666L99.2707 28.4169L98.9692 27.9077C98.9979 27.8944 99.0249 27.8781 99.0501 27.8597C99.0853 27.8338 99.1168 27.8028 99.1433 27.7685C99.1743 27.7285 99.199 27.6833 99.2155 27.6345C99.2317 27.5876 99.2405 27.537 99.2405 27.4848C99.2405 27.4216 99.2277 27.3612 99.2048 27.3058C99.1808 27.2482 99.1459 27.1966 99.103 27.1535L99.1028 27.1533C99.0598 27.1103 99.008 27.0754 98.9504 27.0516V27.0514C98.8951 27.0285 98.8345 27.0158 98.7714 27.0158H98.1673V28.5135H98.3992V27.952H98.7309L99.041 28.4816H99.0409L99.0504 28.498L99.0594 28.5135ZM98.7715 27.2418H98.3992V27.7259H98.7715C98.8035 27.7259 98.8341 27.7193 98.8621 27.7077V27.7079C98.8908 27.6957 98.917 27.6777 98.9388 27.6557C98.9608 27.6334 98.9784 27.6068 98.9906 27.5773H98.9904C99.002 27.5488 99.0086 27.5175 99.0086 27.4848C99.0086 27.4516 99.002 27.4199 98.9906 27.3914C98.9784 27.3615 98.9608 27.3345 98.939 27.3126C98.9172 27.2902 98.891 27.272 98.8621 27.26C98.8345 27.2482 98.8037 27.2418 98.7715 27.2418ZM99.0883 26.8009C99.2178 26.8544 99.3347 26.9334 99.4328 27.0313C99.5305 27.1293 99.6095 27.2462 99.6632 27.3758C99.7148 27.5008 99.7435 27.6381 99.7435 27.782C99.7435 27.9261 99.7148 28.0632 99.6632 28.1882C99.6095 28.3178 99.5305 28.4349 99.4328 28.5326C99.3347 28.6306 99.2178 28.7096 99.0883 28.7632C98.9632 28.8148 98.826 28.8435 98.682 28.8435C98.538 28.8435 98.4007 28.8148 98.2758 28.7632C98.1463 28.7096 98.0292 28.6306 97.9313 28.5326C97.8334 28.4349 97.7546 28.3178 97.7009 28.1882C97.6493 28.0632 97.6206 27.9261 97.6206 27.782C97.6206 27.6381 97.6493 27.5008 97.7009 27.3758C97.7546 27.2462 97.8334 27.1293 97.9313 27.0313C98.0292 26.9334 98.1463 26.8544 98.2758 26.8009C98.4007 26.7492 98.538 26.7206 98.682 26.7206C98.826 26.7206 98.9632 26.7492 99.0883 26.8009ZM28.7144 26.3454H26.2566C26.2412 26.3454 26.2343 26.3512 26.2343 26.367V34.0628C26.2343 34.0788 26.2382 34.0788 26.2488 34.0788H26.2499H28.7144C31.4531 34.0788 32.5382 32.078 32.4864 30.1088C32.4349 28.2257 31.3324 26.3454 28.7144 26.3454ZM65.1058 36.1899C65.1058 36.2319 65.1401 36.2662 65.1821 36.2662H67.1409C67.1829 36.2662 67.2174 36.2319 67.2174 36.1899V31.1523C67.2405 31.0467 67.2729 30.9443 67.3139 30.8462C67.4063 30.6246 67.5416 30.4244 67.7095 30.2567C67.8774 30.0887 68.0775 29.9533 68.2992 29.861C68.5123 29.772 68.7457 29.7229 68.99 29.7229C69.2341 29.7229 69.4675 29.772 69.6808 29.861C69.9024 29.9533 70.1026 30.0887 70.2703 30.2567C70.7761 30.7624 70.7726 31.1493 70.7673 31.7384V31.7393V31.7401V31.741L70.7668 31.8001L70.7664 31.8664L70.7662 31.9321V35.9013H70.7928V36.1919C70.7928 36.2328 70.8262 36.2662 70.8669 36.2662H72.7694C72.8103 36.2662 72.8437 36.2328 72.8437 36.1919V32.5921C72.8437 32.5856 72.8427 32.5792 72.8412 32.573V31.96L72.8412 31.9163L72.8409 31.8635L72.8397 31.747C72.8334 31.158 72.8291 30.7644 73.3369 30.2567C73.5048 30.0887 73.7048 29.9533 73.9266 29.861C74.1397 29.772 74.3731 29.7229 74.6174 29.7229C74.8615 29.7229 75.0949 29.772 75.3082 29.861C75.5298 29.9533 75.73 30.0887 75.8977 30.2567C76.0656 30.4244 76.2011 30.6246 76.2934 30.8462C76.3823 31.0595 76.4315 31.2929 76.4315 31.537V33.3882C76.4305 33.9693 76.4287 34.1514 76.4268 34.3331C76.4242 34.5877 76.4215 34.8415 76.4215 36.1919C76.4215 36.2328 76.4549 36.2662 76.4958 36.2662H78.3983C78.439 36.2662 78.4725 36.2328 78.4725 36.1919V32.5921C78.4725 32.5839 78.4711 32.576 78.4686 32.5685V31.537C78.4686 31.0173 78.3645 30.5208 78.1761 30.0674C77.9803 29.5962 77.6936 29.1717 77.3381 28.8163C76.9827 28.4608 76.5581 28.1741 76.087 27.9782C75.6337 27.7899 75.1371 27.6857 74.6174 27.6857C74.0977 27.6857 73.6011 27.7899 73.1478 27.9782C72.6765 28.1741 72.2519 28.4608 71.8966 28.8163C71.8784 28.8345 71.8602 28.8533 71.842 28.872L71.8037 28.9126C71.7911 28.8993 71.7784 28.8857 71.7651 28.8719L71.7456 28.8517L71.7388 28.8447L71.7107 28.8163C71.3553 28.4608 70.9307 28.1741 70.4596 27.9782C70.0063 27.7899 69.5097 27.6857 68.99 27.6857C68.6296 27.6857 68.2806 27.7358 67.9493 27.8293C67.6707 27.9077 67.55 27.9756 67.3759 28.0734L67.3757 28.0735L67.3755 28.0736C67.315 28.1076 67.248 28.1452 67.1656 28.1882L67.114 27.854C67.114 27.8118 67.0793 27.7775 67.0375 27.7775H65.193C65.1512 27.7775 65.1167 27.8118 65.1167 27.854C65.1167 29.2395 65.114 30.6249 65.1112 32.0103L65.1112 32.022L65.1112 32.0336C65.1085 33.419 65.1058 34.8045 65.1058 36.1899ZM61.1041 37.9752V37.7002C61.1041 37.6816 61.0891 37.6666 61.0705 37.6666H59.8536C59.835 37.6666 59.82 37.6816 59.82 37.7002V39.4325C59.82 39.451 59.835 39.466 59.8536 39.466H61.1002C61.1187 39.466 61.1339 39.451 61.1339 39.4325V39.1574C61.1339 39.1388 61.1187 39.1238 61.1002 39.1238H60.1797V38.7276H60.9763C60.9949 38.7276 61.0099 38.7126 61.0099 38.694V38.4338C61.0099 38.4152 60.9949 38.4002 60.9763 38.4002H60.1797V38.0088H61.0705C61.0891 38.0088 61.1041 37.9938 61.1041 37.9752ZM62.5908 39.4497L62.1872 38.8325L61.7827 39.4508C61.7763 39.4608 61.7656 39.466 61.7547 39.466H61.3904C61.3718 39.466 61.3568 39.451 61.3568 39.4325C61.3568 39.4282 61.3576 39.4242 61.359 39.4206C61.3602 39.4173 61.3619 39.4143 61.3641 39.4116L61.945 38.5426L61.4045 37.7184C61.3943 37.703 61.3987 37.6822 61.414 37.672C61.4198 37.6683 61.4262 37.6666 61.4326 37.6666H61.7943C61.8069 37.6666 61.8178 37.6734 61.8236 37.6835L62.1872 38.2336L62.5521 37.6816C62.5547 37.6777 62.5579 37.6745 62.5616 37.6721C62.5671 37.6685 62.5736 37.6666 62.5801 37.6666H62.9418C62.9604 37.6666 62.9754 37.6816 62.9754 37.7002C62.9754 37.7075 62.9731 37.7143 62.969 37.7197L62.4294 38.5426L63.0118 39.4139C63.0221 39.4293 63.018 39.4501 63.0026 39.4604C62.997 39.4642 62.9904 39.466 62.984 39.466H62.6197C62.6075 39.466 62.5968 39.4595 62.5908 39.4497ZM64.4174 39.0861C64.3493 39.1178 64.2671 39.1338 64.1713 39.1338C64.0947 39.1338 64.0234 39.1199 63.9578 39.0923C63.8921 39.0645 63.8311 39.0225 63.775 38.9664C63.7191 38.9105 63.6771 38.8478 63.6493 38.7788C63.6215 38.7094 63.6077 38.6328 63.6077 38.549C63.6077 38.4653 63.6215 38.3893 63.6497 38.3212C63.6774 38.2535 63.7195 38.1929 63.7756 38.1396C63.8319 38.0859 63.8947 38.0458 63.9639 38.0191C64.0334 37.9925 64.1099 37.979 64.1936 37.979C64.2416 37.979 64.2861 37.9827 64.3268 37.9902C64.3673 37.9976 64.4048 38.0086 64.4396 38.0235C64.4741 38.0381 64.5099 38.0587 64.5469 38.085C64.5846 38.1116 64.6234 38.1443 64.6636 38.1827H64.6638L64.6643 38.1833C64.6778 38.1957 64.699 38.1947 64.7116 38.1812L64.8957 37.9799C64.909 37.9674 64.9099 37.9463 64.8975 37.9328C64.8043 37.8302 64.6994 37.7531 64.5829 37.7017C64.4664 37.6501 64.3388 37.6244 64.1998 37.6244C64.0617 37.6244 63.9349 37.6467 63.8197 37.6912C63.7043 37.7358 63.6009 37.8026 63.5097 37.8917C63.327 38.0702 63.2356 38.2931 63.2356 38.56C63.2356 38.6933 63.2579 38.8154 63.3028 38.9259C63.3478 39.0368 63.4152 39.136 63.5048 39.2236C63.5943 39.3109 63.6956 39.3766 63.8086 39.4205C63.9214 39.4642 64.0452 39.4859 64.1801 39.4859C64.4518 39.4859 64.6827 39.3805 64.873 39.17H64.8728C64.8846 39.157 64.8842 39.137 64.872 39.1242L64.6836 38.931C64.6709 38.9178 64.6501 38.9173 64.6366 38.9298C64.5981 38.966 64.5604 38.9972 64.5238 39.0233C64.4876 39.049 64.4521 39.07 64.4174 39.0861ZM66.5744 37.7002V37.9752C66.5744 37.9938 66.5594 38.0088 66.5408 38.0088H65.65V38.4002H66.4467C66.4652 38.4002 66.4802 38.4152 66.4802 38.4338V38.694C66.4802 38.7126 66.4652 38.7276 66.4467 38.7276H65.65V39.1238H66.5707C66.5891 39.1238 66.6041 39.1388 66.6041 39.1574V39.4325C66.6041 39.451 66.5891 39.466 66.5707 39.466H65.324C65.3054 39.466 65.2904 39.451 65.2904 39.4325V37.7002C65.2904 37.6816 65.3054 37.6666 65.324 37.6666H66.5408C66.5594 37.6666 66.5744 37.6816 66.5744 37.7002ZM68.008 37.7054C67.9093 37.6796 67.7928 37.6666 67.6589 37.6666H67.0639C67.0454 37.6666 67.0304 37.6816 67.0304 37.7002V39.4325C67.0304 39.451 67.0454 39.466 67.0639 39.466H67.3564C67.3748 39.466 67.39 39.451 67.39 39.4325V38.958H67.6637C67.9258 38.958 68.1215 38.9068 68.2508 38.8045C68.3823 38.7002 68.4484 38.5377 68.4484 38.3173C68.4484 38.2083 68.4324 38.1129 68.4007 38.0313C68.3684 37.9482 68.3198 37.8797 68.2553 37.8257C68.1911 37.772 68.1088 37.7319 68.008 37.7054ZM67.696 38.6257C67.7741 38.6257 67.839 38.6184 67.8912 38.6038C67.9405 38.5899 67.9776 38.5698 68.0026 38.5434C68.0283 38.516 68.0478 38.482 68.0609 38.4415C68.0745 38.3996 68.0812 38.3503 68.0812 38.2936C68.0812 38.1857 68.0491 38.1105 67.9848 38.0675C67.9512 38.0452 67.9073 38.0281 67.8532 38.0167C67.7975 38.0049 67.7309 37.9989 67.6538 37.9989H67.39V38.6257H67.696ZM69.5662 39.4325V38.0013H70.0581C70.0765 38.0013 70.0915 37.9863 70.0915 37.9677V37.7002C70.0915 37.6816 70.0765 37.6666 70.0581 37.6666H68.7148C68.6962 37.6666 68.6812 37.6816 68.6812 37.7002V37.9677C68.6812 37.9863 68.6962 38.0013 68.7148 38.0013H69.2065V39.4325C69.2065 39.451 69.2215 39.466 69.2401 39.466H69.5326C69.5512 39.466 69.5662 39.451 69.5662 39.4325ZM70.4943 37.6666H70.7868C70.8054 37.6666 70.8204 37.6816 70.8204 37.7002V39.4325C70.8204 39.451 70.8054 39.466 70.7868 39.466H70.4943C70.4758 39.466 70.4609 39.451 70.4609 39.4325V37.7002C70.4609 37.6816 70.4758 37.6666 70.4943 37.6666ZM72.4119 38.0024C72.4801 38.0311 72.5422 38.0745 72.5981 38.1323C72.6542 38.1904 72.6962 38.2544 72.7241 38.3244C72.7519 38.3942 72.766 38.4709 72.766 38.554C72.766 38.637 72.7519 38.7137 72.7241 38.7835C72.6962 38.8535 72.6542 38.9176 72.5981 38.9756C72.5422 39.0334 72.4801 39.0767 72.4119 39.1056C72.3438 39.1343 72.269 39.1486 72.1874 39.1486C72.1056 39.1486 72.0307 39.1343 71.9626 39.1056C71.8945 39.0767 71.8324 39.0334 71.7765 38.9756C71.6647 38.8598 71.6088 38.7193 71.6088 38.554C71.6088 38.4709 71.6227 38.3942 71.6506 38.3244C71.6784 38.2544 71.7204 38.1904 71.7765 38.1323C71.8879 38.0169 72.0249 37.9593 72.1874 37.9593C72.269 37.9593 72.3438 37.9735 72.4119 38.0024ZM72.86 39.2174C72.7692 39.306 72.6677 39.3726 72.5553 39.4169C72.4431 39.4613 72.3204 39.4835 72.1874 39.4835C72.0542 39.4835 71.9315 39.4613 71.8193 39.4169C71.7071 39.3726 71.6054 39.306 71.5146 39.2174C71.4238 39.1287 71.3555 39.0289 71.3099 38.918C71.2645 38.8071 71.2416 38.6857 71.2416 38.554C71.2416 38.4221 71.2645 38.3007 71.3099 38.1899C71.3555 38.079 71.4238 37.9792 71.5146 37.8904C71.6054 37.8019 71.7071 37.7353 71.8193 37.691C71.9315 37.6465 72.0542 37.6244 72.1874 37.6244C72.3204 37.6244 72.4431 37.6465 72.5553 37.691C72.6677 37.7353 72.7692 37.8019 72.86 37.8904C72.9508 37.9792 73.0191 38.079 73.0647 38.1899C73.1101 38.3007 73.133 38.4221 73.133 38.554C73.133 38.6857 73.1101 38.8071 73.0647 38.918C73.0191 39.0289 72.9508 39.1287 72.86 39.2174ZM75.1789 37.6666H74.8864C74.8679 37.6666 74.8529 37.6816 74.8529 37.7002V38.8961L73.9075 37.6805C73.9013 37.672 73.8913 37.6666 73.8803 37.6666H73.5878C73.5692 37.6666 73.5542 37.6816 73.5542 37.7002V39.4325C73.5542 39.451 73.5692 39.466 73.5878 39.466H73.8803C73.8986 39.466 73.9138 39.451 73.9138 39.4325V38.2664L74.8345 39.4522C74.8407 39.4606 74.8504 39.466 74.8617 39.466H75.1789C75.1975 39.466 75.2125 39.451 75.2125 39.4325V37.7002C75.2125 37.6816 75.1975 37.6666 75.1789 37.6666ZM76.7504 39.466H76.4579C76.4394 39.466 76.4244 39.451 76.4244 39.4325V37.7002C76.4244 37.6816 76.4394 37.6666 76.4579 37.6666H76.914C76.9285 37.6666 76.9407 37.6756 76.9456 37.6886L77.4369 38.7109L77.9296 37.6857C77.9354 37.6737 77.9474 37.6668 77.9598 37.6666H78.4135C78.4321 37.6666 78.4471 37.6816 78.4471 37.7002V39.4325C78.4471 39.451 78.4321 39.466 78.4135 39.466H78.121C78.1024 39.466 78.0874 39.451 78.0874 39.4325V38.2206L77.5461 39.2964C77.5403 39.3081 77.5285 39.3148 77.5163 39.3148V39.315H77.3527C77.3384 39.315 77.3262 39.306 77.3214 39.2934L76.784 38.221V39.4325C76.784 39.451 76.7688 39.466 76.7504 39.466ZM79.1159 39.446L79.2806 39.072H80.1042L80.2682 39.4445C80.2731 39.457 80.2853 39.466 80.2996 39.466H80.6119C80.6164 39.466 80.6209 39.4651 80.6255 39.4632C80.6423 39.4557 80.65 39.436 80.6425 39.4189L79.8801 37.6882C79.8752 37.6756 79.863 37.6666 79.8485 37.6666H79.5363C79.5234 37.6666 79.511 37.6741 79.5056 37.6867L78.7429 39.4174C78.7406 39.4219 78.7393 39.4272 78.7393 39.4325C78.7393 39.451 78.7543 39.466 78.7729 39.466H79.0851C79.0981 39.466 79.1104 39.4585 79.1159 39.446ZM79.9559 38.7347L79.6924 38.1377L79.429 38.7347H79.9559ZM82.5626 37.6666H82.2701C82.2516 37.6666 82.2365 37.6816 82.2365 37.7002V38.8961L81.2911 37.6805C81.285 37.672 81.275 37.6666 81.2639 37.6666H80.9714C80.9529 37.6666 80.9379 37.6816 80.9379 37.7002V39.4325C80.9379 39.451 80.9529 39.466 80.9714 39.466H81.2639C81.2825 39.466 81.2975 39.451 81.2975 39.4325V38.2664L82.2182 39.4522C82.2242 39.4606 82.2341 39.466 82.2454 39.466H82.5626C82.5812 39.466 82.5962 39.451 82.5962 39.4325V37.7002C82.5962 37.6816 82.5812 37.6666 82.5626 37.6666ZM83.4298 39.072L83.265 39.446C83.2596 39.4585 83.2472 39.466 83.2345 39.466H82.9221C82.9035 39.466 82.8885 39.451 82.8885 39.4325C82.8885 39.4272 82.8898 39.4219 82.8921 39.4174L83.6547 37.6867C83.6603 37.6741 83.6725 37.6666 83.6855 37.6666H83.9977C84.0121 37.6666 84.0243 37.6756 84.0292 37.6882L84.7917 39.4189C84.7992 39.436 84.7915 39.4557 84.7746 39.4632C84.7701 39.4651 84.7656 39.466 84.7611 39.466H84.4487C84.4344 39.466 84.4222 39.457 84.4174 39.4445L84.2534 39.072H83.4298ZM83.8416 38.1377L84.105 38.7347H83.5784L83.8416 38.1377ZM86.3202 38.5563H86.6127C86.6311 38.5563 86.6463 38.5713 86.6463 38.5899V39.1822C86.6463 39.1882 86.6447 39.1938 86.6419 39.1987C86.6403 39.2015 86.6384 39.204 86.6361 39.2062C86.5512 39.2994 86.448 39.3694 86.3268 39.4161C86.2058 39.4627 86.0673 39.4859 85.9112 39.4859C85.7791 39.4859 85.6573 39.4642 85.5461 39.4205C85.4348 39.3766 85.3343 39.3109 85.2448 39.2236C85.1549 39.136 85.0876 39.0368 85.0427 38.9259C84.9979 38.8154 84.9755 38.6933 84.9755 38.56C84.9755 38.2931 85.0669 38.0702 85.2497 37.8917C85.3408 37.8028 85.4416 37.736 85.5521 37.6914C85.6626 37.6467 85.7823 37.6244 85.9112 37.6244C86.0395 37.6244 86.1575 37.6433 86.2649 37.6809C86.3727 37.7188 86.4697 37.7754 86.5555 37.8508C86.5692 37.8629 86.5707 37.8835 86.5592 37.8974L86.4046 38.1182C86.3939 38.1334 86.3731 38.1372 86.3581 38.1266C86.3572 38.1259 86.3562 38.1253 86.3555 38.1246C86.323 38.097 86.2906 38.0735 86.2583 38.0546C86.2266 38.0358 86.1945 38.0212 86.1624 38.0109C86.13 38.0002 86.0947 37.9923 86.057 37.9871C86.0189 37.9818 85.9778 37.979 85.9335 37.979C85.8498 37.979 85.7733 37.9925 85.7039 38.0191C85.6346 38.0458 85.5718 38.0859 85.5155 38.1396C85.4596 38.1927 85.4176 38.2542 85.3896 38.324C85.3615 38.3944 85.3474 38.4734 85.3474 38.5614C85.3474 38.6493 85.3611 38.7283 85.3885 38.7983C85.4157 38.8677 85.4564 38.9285 85.5106 38.9809C85.5654 39.0336 85.6256 39.0732 85.6915 39.0994C85.7573 39.1257 85.8294 39.1388 85.9074 39.1388C85.9872 39.1388 86.0598 39.1302 86.1256 39.1133C86.1846 39.0981 86.2382 39.076 86.2866 39.0471V38.5899C86.2866 38.5713 86.3016 38.5563 86.3202 38.5563ZM88.8866 39.466H89.1791C89.1977 39.466 89.2127 39.451 89.2127 39.4325V38.221L89.75 39.2934C89.7549 39.306 89.7671 39.315 89.7814 39.315H89.945V39.3148C89.9572 39.3148 89.969 39.3081 89.9748 39.2964L90.5161 38.2206V39.4325C90.5161 39.451 90.5311 39.466 90.5496 39.466H90.8421C90.8607 39.466 90.8757 39.451 90.8757 39.4325V37.7002C90.8757 37.6816 90.8607 37.6666 90.8421 37.6666H90.3885C90.3761 37.6668 90.3641 37.6737 90.3585 37.6857L89.8656 38.7109L89.3742 37.6886C89.3694 37.6756 89.3572 37.6666 89.3427 37.6666H88.8866C88.868 37.6666 88.853 37.6816 88.853 37.7002V39.4325C88.853 39.451 88.868 39.466 88.8866 39.466ZM92.6062 37.7002V37.9752C92.6062 37.9938 92.5912 38.0088 92.5728 38.0088H91.6818V38.4002H92.4786C92.497 38.4002 92.512 38.4152 92.512 38.4338V38.694C92.512 38.7126 92.497 38.7276 92.4786 38.7276H91.6818V39.1238H92.6024C92.621 39.1238 92.636 39.1388 92.636 39.1574V39.4325C92.636 39.451 92.621 39.466 92.6024 39.466H91.3557C91.3373 39.466 91.3223 39.451 91.3223 39.4325V37.7002C91.3223 37.6816 91.3373 37.6666 91.3557 37.6666H92.5728C92.5912 37.6666 92.6062 37.6816 92.6062 37.7002ZM88.3767 37.9752V37.7002C88.3767 37.6816 88.3617 37.6666 88.3433 37.6666H87.1263C87.1079 37.6666 87.0929 37.6816 87.0929 37.7002V39.4325C87.0929 39.451 87.1079 39.466 87.1263 39.466H88.373C88.3916 39.466 88.4066 39.451 88.4066 39.4325V39.1574C88.4066 39.1388 88.3916 39.1238 88.373 39.1238H87.4523V38.7276H88.2492C88.2675 38.7276 88.2825 38.7126 88.2825 38.694V38.4338C88.2825 38.4152 88.2675 38.4002 88.2492 38.4002H87.4523V38.0088H88.3433C88.3617 38.0088 88.3767 37.9938 88.3767 37.9752ZM94.4148 37.6666H94.7071C94.7257 37.6666 94.7407 37.6816 94.7407 37.7002V39.4325C94.7407 39.451 94.7257 39.466 94.7071 39.466H94.39C94.3788 39.466 94.3688 39.4606 94.3628 39.4522L93.442 38.2664V39.4325C93.442 39.451 93.427 39.466 93.4084 39.466H93.1159C93.0975 39.466 93.0825 39.451 93.0825 39.4325V37.7002C93.0825 37.6816 93.0975 37.6666 93.1159 37.6666H93.4084C93.4197 37.6666 93.4296 37.672 93.4356 37.6805L94.3812 38.8961V37.7002C94.3812 37.6816 94.3962 37.6666 94.4148 37.6666ZM96.0724 39.4325V38.0013H96.5641C96.5827 38.0013 96.5977 37.9863 96.5977 37.9677V37.7002C96.5977 37.6816 96.5827 37.6666 96.5641 37.6666H95.2208C95.2022 37.6666 95.1872 37.6816 95.1872 37.7002V37.9677C95.1872 37.9863 95.2022 38.0013 95.2208 38.0013H95.7127V39.4325C95.7127 39.451 95.7277 39.466 95.7463 39.466H96.0386C96.0572 39.466 96.0724 39.451 96.0724 39.4325ZM40.8906 36.5445C40.0998 38.4203 39.1351 40.3694 36.6257 40.6884C36.5521 40.6976 36.5281 40.6321 36.5261 40.6126L36.3253 38.7233C36.3225 38.6964 36.3274 38.6366 36.3966 38.6264C37.5686 38.4546 38.2304 37.4011 38.7555 36.2486L35.4116 27.8899C35.3908 27.8116 35.4431 27.7747 35.4968 27.7747H37.7459C37.7852 27.7747 37.814 27.7884 37.8319 27.8326L39.1033 31.4433L39.8566 33.6717L40.8698 31.3068L42.3022 27.809C42.3242 27.7672 42.3488 27.7546 42.3846 27.7546H44.5223C44.5801 27.7546 44.6221 27.8092 44.6009 27.869L40.8906 36.5445ZM94.3855 27.7749H96.6656C96.694 27.7749 96.7005 27.7981 96.6801 27.8263L93.6497 32.0206L96.6801 36.2148C96.7004 36.2432 96.694 36.2662 96.6656 36.2662H94.3855C94.3572 36.2662 94.3172 36.2432 94.297 36.2148L92.4581 33.6698L90.6193 36.2148C90.5988 36.2432 90.5591 36.2662 90.5307 36.2662H88.2504C88.2223 36.2662 88.2157 36.2432 88.2362 36.2148L91.2666 32.0206L88.2362 27.8263C88.2157 27.7981 88.2221 27.7749 88.2504 27.7749H90.5307C90.5591 27.7749 90.599 27.7981 90.6193 27.8263L92.4581 30.3713L94.297 27.8263C94.3172 27.7981 94.3572 27.7749 94.3855 27.7749ZM61.7159 28.3728L61.7675 27.854C61.7716 27.812 61.802 27.7775 61.8441 27.7775H63.6369C63.6789 27.7775 63.7133 27.8118 63.7133 27.854C63.7134 30.6326 63.7134 33.4114 63.7133 36.1899C63.7133 36.2319 63.6789 36.2662 63.6369 36.2662H61.8441C61.802 36.2662 61.7714 36.2317 61.7675 36.1899L61.7159 35.646C60.9925 36.1467 60.0628 36.4919 59.1165 36.4919C57.8788 36.4919 56.7581 35.9901 55.9471 35.179C55.1358 34.3677 54.6341 33.2471 54.6341 32.0094C54.6341 30.7719 55.1358 29.6512 55.9471 28.84C56.7581 28.0289 57.8788 27.527 59.1165 27.527C60.0628 27.527 60.9925 27.872 61.7159 28.3728ZM59.1165 29.5158C59.8052 29.5158 60.4287 29.7949 60.8799 30.2462C61.3311 30.6974 61.6101 31.3208 61.6101 32.0094C61.6101 32.6981 61.3311 33.3216 60.8799 33.7728C60.4287 34.224 59.8052 34.5032 59.1165 34.5032C58.4279 34.5032 57.8045 34.224 57.3532 33.7728C56.902 33.3216 56.6228 32.6981 56.6228 32.0094C56.6228 31.3208 56.902 30.6974 57.3532 30.2462C57.8045 29.7949 58.4279 29.5158 59.1165 29.5158Z" fill="#3B1422"/>
<path fill-rule="evenodd" clip-rule="evenodd" d="M83.9165 27.527C85.1585 27.527 86.2829 28.0306 87.097 28.8445C87.9109 29.6583 88.4143 30.7829 88.4143 32.0248C88.4143 33.2666 87.9109 34.3912 87.097 35.2051C86.2829 36.0189 85.1585 36.5225 83.9165 36.5225C82.6747 36.5225 81.5503 36.0189 80.7364 35.2051C79.9223 34.3912 79.419 33.2666 79.419 32.0248C79.419 30.7827 79.9223 29.6583 80.7364 28.8445C81.5503 28.0306 82.6747 27.527 83.9165 27.527ZM85.6859 30.2553C85.2332 29.8026 84.6077 29.5225 83.9165 29.5225C83.2255 29.5225 82.6 29.8026 82.1473 30.2553C81.6944 30.7083 81.4145 31.3338 81.4145 32.0248C81.4145 32.7158 81.6946 33.3415 82.1473 33.7942C82.6 34.2469 83.2255 34.527 83.9165 34.527C84.6077 34.527 85.2332 34.2469 85.6859 33.7942C86.1387 33.3415 86.4188 32.7158 86.4188 32.0248C86.4188 31.3338 86.1387 30.7083 85.6859 30.2553ZM52.5077 28.8636C51.751 28.1067 50.7064 27.6371 49.5567 27.6371C48.755 27.6371 47.9529 27.9171 47.3154 28.3118L47.2636 27.854C47.2636 27.8118 47.2293 27.7775 47.1872 27.7775H45.3428C45.3006 27.7775 45.2662 27.8118 45.2662 27.854V36.1899C45.2662 36.2319 45.3006 36.2662 45.3428 36.2662H47.2906C47.3327 36.2662 47.367 36.2319 47.367 36.1899V35.3782H47.3672V32.0961V31.6585C47.4103 31.1214 47.672 30.6128 48.03 30.2548C48.4225 29.8625 48.9629 29.652 49.5567 29.652C50.1503 29.652 50.6908 29.8957 51.0831 30.2882C51.4756 30.6805 51.7191 31.221 51.7191 31.8146V36.1929C51.7191 36.2332 51.7522 36.2662 51.7925 36.2662H53.6606C53.7009 36.2662 53.734 36.2332 53.734 36.1929V35.4146H53.7341V31.8146C53.7341 30.6647 53.2645 29.6201 52.5077 28.8636Z" fill="#3B1422"/>
</svg>
